<?xml version="1.0" standalone="no"?>
<!DOCTYPE svg PUBLIC "-//W3C//DTD SVG 20010904//EN"
 "http://www.w3.org/TR/2001/REC-SVG-20010904/DTD/svg10.dtd">
<svg version="1.0" xmlns="http://www.w3.org/2000/svg"
 width="310.000000pt" height="310.000000pt" viewBox="0 0 310.000000 310.000000"
 preserveAspectRatio="xMidYMid meet">

<g transform="translate(0.000000,310.000000) scale(0.100000,-0.100000)"
fill="#000000" stroke="none">
<path d="M1370 3070 c-348 -48 -645 -195 -890 -440 -219 -219 -355 -470 -421
-780 -32 -149 -33 -438 -1 -586 30 -138 64 -240 123 -364 210 -440 605 -745
1092 -842 159 -31 405 -31 564 0 216 43 432 135 606 259 105 74 276 245 350
350 123 173 217 392 257 598 28 150 28 430 0 580 -118 609 -588 1079 -1204
1206 -115 24 -369 34 -476 19z m-230 -600 c155 -20 252 -98 281 -225 21 -96
-23 -216 -95 -254 l-25 -14 52 -36 c138 -97 152 -306 29 -429 -22 -22 -66 -50
-98 -63 -57 -23 -69 -24 -381 -27 l-323 -3 0 530 0 531 243 0 c133 0 276 -5
317 -10z m1045 0 c163 -24 275 -128 304 -283 26 -142 -48 -292 -177 -357 l-44
-21 18 -27 c9 -15 68 -103 130 -195 l112 -168 -121 3 -121 3 -117 180 -117
180 -111 3 -111 3 0 -186 0 -185 -105 0 -105 0 0 530 0 530 248 0 c136 0 279
-5 317 -10z m2 -1365 c147 -62 190 -275 80 -393 -91 -98 -286 -101 -381 -6
-128 128 -69 360 105 413 44 14 147 6 196 -14z m-1347 -146 c0 -178 8 -212 59
-242 37 -22 124 -22 160 -1 52 31 56 46 59 232 l4 172 35 0 35 0 -4 -177 c-4
-197 -10 -221 -70 -267 -81 -61 -227 -55 -291 12 -49 51 -57 87 -57 267 l0
165 35 0 35 0 0 -161z m660 -19 c85 -99 158 -179 163 -180 4 0 7 81 7 180 l0
180 30 0 30 0 0 -240 0 -240 -29 0 c-26 0 -50 23 -188 182 l-158 181 -3 -181
-2 -182 -35 0 -35 0 0 240 0 240 33 0 c29 0 45 -16 187 -180z"/>
<path d="M780 2170 l0 -130 170 0 c187 0 223 8 254 60 21 36 21 109 0 139 -35
49 -85 61 -261 61 l-163 0 0 -130z"/>
<path d="M780 1735 l0 -135 182 0 c161 0 186 2 223 20 72 35 97 119 55 188
-34 55 -66 62 -275 62 l-185 0 0 -135z"/>
<path d="M1830 2130 l0 -160 163 0 c183 0 220 10 271 71 26 30 28 39 24 96 -3
53 -9 68 -33 94 -50 53 -77 59 -260 59 l-165 0 0 -160z"/>
<path d="M1982 1039 c-58 -29 -92 -88 -92 -158 0 -58 10 -82 49 -124 51 -55
136 -72 208 -42 50 21 72 42 94 90 37 81 17 162 -54 219 -51 41 -141 48 -205
15z"/>
</g>
</svg>
